# xmcd CD database file
#
# Track frame offsets:
#	182
#	44790
#	77837
#	92987
#	117470
#	127622
#	178057
#	184640
#	237385
#	258885
#
# Disc length: 3766 seconds
#
# Revision: 0
# Processed by: cddbd v1.4PL0 Copyright (c) Steve Scherf et al.
# Submitted via: CDex 1.51
#
DISCID=850eb40a
DTITLE=Dinah Washington - Dinah Jams Complete Sessions +4
DYEAR=1954
DGENRE=Jazz
TTITLE0=Lover Come Back to Me
TTITLE1=Summertime
TTITLE2=No More
TTITLE3=I've Got You Under My Skin
TTITLE4=There is No Greater Love
TTITLE5=You Go To My Head
TTITLE6=Introduction
TTITLE7=I'll Remember April
TTITLE8=Crazy He Calls Me
TTITLE9=Darn That Dream
EXTD=YEAR: 1954
EXTT0=
EXTT1=
EXTT2=
EXTT3=
EXTT4=
EXTT5=
EXTT6=
EXTT7=
EXTT8=
EXTT9=
PLAYORDER=
